ffmpeg started on 2016-11-26 at 11:30:51
Report written to "Output/NVENCh264/results/ffmpeg/sintelll3000k.log"
Command line:
Tools/ffmpeg/ffmpeg -benchmark -y -i Input/y4m/sintel.y4m -c:v h264_nvenc -preset ll -b:v 3000k -an Output/NVENCh264/encoded/sintelll3000k.mkv
ffmpeg version N-82227-gdb23fde Copyright (c) 2000-2016 the FFmpeg developers
  built with gcc 5.4.0 (Ubuntu 5.4.0-6ubuntu1~16.04.2) 20160609
  configuration: --prefix=/home/jaroslav/ffmpeg_build --pkg-config-flags=--static --extra-cflags=-I/home/jaroslav/ffmpeg_build/include --extra-ldflags=-L/home/jaroslav/ffmpeg_build/lib --bindir=/home/jaroslav/bin --enable-gpl --enable-libass --enable-libfdk-aac --enable-libfreetype --enable-libmp3lame --enable-libopus --enable-libtheora --enable-libvorbis --enable-libvpx --enable-libx264 --enable-libx265 --enable-nvenc --enable-libmfx --enable-libxvid --enable-libgsm --enable-libopencore-amrnb --enable-version3 --enable-nonfree
  libavutil      55. 35.100 / 55. 35.100
  libavcodec     57. 66.101 / 57. 66.101
  libavformat    57. 57.100 / 57. 57.100
  libavdevice    57.  2.100 / 57.  2.100
  libavfilter     6. 66.100 /  6. 66.100
  libswscale      4.  3.100 /  4.  3.100
  libswresample   2.  4.100 /  2.  4.100
  libpostproc    54.  2.100 / 54.  2.100
Input #0, yuv4mpegpipe, from 'Input/y4m/sintel.y4m':
  Duration: 00:00:20.83, start: 0.000000, bitrate: 2057307 kb/s
    Stream #0:0: Video: rawvideo (I420 / 0x30323449), yuv420p(progressive), 4096x1744, SAR 1:1 DAR 256:109, 24 fps, 24 tbr, 24 tbn, 24 tbc
[h264_nvenc @ 0x3e8e1c0] The variable bitrate rate-control requires the 'qmin' and/or 'qmax' option set.
Output #0, matroska, to 'Output/NVENCh264/encoded/sintelll3000k.mkv':
  Metadata:
    encoder         : Lavf57.57.100
    Stream #0:0: Video: h264 (h264_nvenc) (Main) (H264 / 0x34363248), yuv420p, 4096x1744 [SAR 1:1 DAR 256:109], q=-1--1, 3000 kb/s, 24 fps, 1k tbn, 24 tbc
    Metadata:
      encoder         : Lavc57.66.101 h264_nvenc
    Side data:
      cpb: bitrate max/min/avg: 0/0/3000000 buffer size: 6000000 vbv_delay: -1
Stream mapping:
  Stream #0:0 -> #0:0 (rawvideo (native) -> h264 (h264_nvenc))
Press [q] to stop, [?] for help
frame=   22 fps=0.0 q=0.0 size=       0kB time=00:00:00.00 bitrate=N/A speed=   0x    frame=   27 fps= 16 q=0.0 size=       0kB time=00:00:00.00 bitrate=N/A speed=   0x    frame=   39 fps= 17 q=45.0 size=       1kB time=00:00:00.33 bitrate=  17.9kbits/s speed=0.144x    frame=   44 fps= 13 q=48.0 size=       1kB time=00:00:00.54 bitrate=  11.0kbits/s speed=0.156x    frame=   48 fps=9.8 q=48.0 size=       1kB time=00:00:00.70 bitrate=   8.4kbits/s speed=0.145x    frame=   49 fps=6.2 q=49.0 size=       1kB time=00:00:00.75 bitrate=   8.0kbits/s speed=0.0949x    frame=   50 fps=4.5 q=49.0 size=       1kB time=00:00:00.79 bitrate=   7.5kbits/s speed=0.0718x    frame=   51 fps=3.8 q=49.0 size=       1kB time=00:00:00.83 bitrate=   7.2kbits/s speed=0.0618x    frame=   58 fps=4.1 q=49.0 size=       1kB time=00:00:01.12 bitrate=   5.3kbits/s speed=0.0803x    frame=   65 fps=4.5 q=48.0 size=       1kB time=00:00:01.41 bitrate=   4.2kbits/s speed=0.0975x    frame=   73 fps=4.8 q=47.0 size=       1kB time=00:00:01.75 bitrate=   3.4kbits/s speed=0.116x    frame=   77 fps=4.9 q=46.0 size=       1kB time=00:00:01.91 bitrate=   3.1kbits/s speed=0.121x    frame=   83 fps=5.1 q=47.0 size=       1kB time=00:00:02.16 bitrate=   2.8kbits/s speed=0.132x    frame=  104 fps=6.2 q=48.0 size=       1kB time=00:00:03.04 bitrate=   2.0kbits/s speed=0.18x    frame=  111 fps=6.4 q=48.0 size=       1kB time=00:00:03.33 bitrate=   1.8kbits/s speed=0.191x    frame=  118 fps=6.6 q=48.0 size=       1kB time=00:00:03.62 bitrate=   1.6kbits/s speed=0.202x    frame=  138 fps=7.4 q=44.0 size=       1kB time=00:00:04.45 bitrate=   1.3kbits/s speed=0.238x    frame=  144 fps=7.3 q=43.0 size=       1kB time=00:00:04.70 bitrate=   1.3kbits/s speed=0.24x    frame=  149 fps=7.3 q=44.0 size=    1689kB time=00:00:04.91 bitrate=2813.4kbits/s speed=0.24x    frame=  151 fps=7.1 q=44.0 size=    1689kB time=00:00:05.00 bitrate=2766.7kbits/s speed=0.235x    frame=  158 fps=7.3 q=45.0 size=    1689kB time=00:00:05.29 bitrate=2614.1kbits/s speed=0.243x    frame=  162 fps=7.2 q=46.0 size=    1689kB time=00:00:05.45 bitrate=2534.6kbits/s speed=0.242x    frame=  166 fps=7.2 q=47.0 size=    1689kB time=00:00:05.62 bitrate=2459.3kbits/s speed=0.242x    frame=  168 fps=7.0 q=46.0 size=    1689kB time=00:00:05.70 bitrate=2423.6kbits/s speed=0.237x    frame=  173 fps=7.0 q=46.0 size=    1689kB time=00:00:05.91 bitrate=2338.0kbits/s speed=0.238x    frame=  179 fps=7.0 q=46.0 size=    1689kB time=00:00:06.16 bitrate=2243.2kbits/s speed=0.243x    frame=  184 fps=7.0 q=46.0 size=    1689kB time=00:00:06.37 bitrate=2170.1kbits/s speed=0.243x    frame=  191 fps=7.2 q=45.0 size=    1689kB time=00:00:06.66 bitrate=2075.0kbits/s speed=0.25x    frame=  194 fps=7.1 q=45.0 size=    1689kB time=00:00:06.79 bitrate=2036.8kbits/s speed=0.247x    frame=  202 fps=7.2 q=43.0 size=    1689kB time=00:00:07.12 bitrate=1941.7kbits/s speed=0.254x    frame=  203 fps=7.1 q=44.0 size=    1689kB time=00:00:07.16 bitrate=1930.3kbits/s speed=0.25x    frame=  209 fps=7.2 q=44.0 size=    1689kB time=00:00:07.41 bitrate=1865.2kbits/s speed=0.255x    frame=  213 fps=7.1 q=43.0 size=    1689kB time=00:00:07.58 bitrate=1824.4kbits/s speed=0.253x    frame=  219 fps=7.2 q=38.0 size=    1689kB time=00:00:07.83 bitrate=1766.2kbits/s speed=0.257x    frame=  225 fps=7.3 q=42.0 size=    1689kB time=00:00:08.08 bitrate=1711.6kbits/s speed=0.261x    frame=  230 fps=7.2 q=43.0 size=    1689kB time=00:00:08.29 bitrate=1668.4kbits/s speed=0.26x    frame=  235 fps=7.2 q=44.0 size=    1689kB time=00:00:08.50 bitrate=1627.6kbits/s speed=0.262x    frame=  242 fps=7.3 q=44.0 size=    1689kB time=00:00:08.79 bitrate=1573.6kbits/s speed=0.266x    frame=  249 fps=7.4 q=43.0 size=    1689kB time=00:00:09.08 bitrate=1523.1kbits/s speed=0.271x    frame=  253 fps=7.4 q=41.0 size=    1689kB time=00:00:09.25 bitrate=1495.7kbits/s speed=0.27x    frame=  270 fps=7.7 q=41.0 size=    3534kB time=00:00:09.95 bitrate=2906.8kbits/s speed=0.284x    frame=  273 fps=7.6 q=41.0 size=    3534kB time=00:00:10.08 bitrate=2870.8kbits/s speed=0.283x    frame=  278 fps=7.6 q=40.0 size=    3534kB time=00:00:10.29 bitrate=2812.5kbits/s speed=0.282x    frame=  282 fps=7.6 q=40.0 size=    3534kB time=00:00:10.45 bitrate=2767.9kbits/s speed=0.283x    frame=  284 fps=7.5 q=40.0 size=    3534kB time=00:00:10.54 bitrate=2745.8kbits/s speed=0.28x    frame=  290 fps=7.5 q=39.0 size=    3534kB time=00:00:10.79 bitrate=2682.2kbits/s speed=0.28x    frame=  292 fps=7.4 q=38.0 size=    3534kB time=00:00:10.87 bitrate=2661.8kbits/s speed=0.277x    frame=  298 fps=7.5 q=44.0 size=    3978kB time=00:00:11.12 bitrate=2928.7kbits/s speed=0.28x    frame=  301 fps=7.4 q=41.0 size=    3978kB time=00:00:11.25 bitrate=2896.1kbits/s speed=0.276x    frame=  303 fps=7.3 q=42.0 size=    3978kB time=00:00:11.33 bitrate=2874.9kbits/s speed=0.272x    frame=  306 fps=7.2 q=41.0 size=    3978kB time=00:00:11.45 bitrate=2843.6kbits/s speed=0.27x    frame=  313 fps=7.3 q=41.0 size=    3978kB time=00:00:11.75 bitrate=2772.9kbits/s speed=0.273x    frame=  315 fps=7.2 q=41.0 size=    3978kB time=00:00:11.83 bitrate=2753.4kbits/s speed=0.271x    frame=  318 fps=7.2 q=42.0 size=    3978kB time=00:00:11.95 bitrate=2724.7kbits/s speed=0.27x    frame=  323 fps=7.2 q=38.0 size=    3978kB time=00:00:12.16 bitrate=2677.9kbits/s speed=0.269x    frame=  329 fps=7.1 q=39.0 size=    3978kB time=00:00:12.41 bitrate=2624.0kbits/s speed=0.27x    frame=  333 fps=7.1 q=35.0 size=    3978kB time=00:00:12.58 bitrate=2589.3kbits/s speed=0.269x    frame=  340 fps=7.2 q=35.0 size=    3978kB time=00:00:12.87 bitrate=2530.6kbits/s speed=0.272x    frame=  347 fps=7.3 q=35.0 size=    3978kB time=00:00:13.16 bitrate=2474.5kbits/s speed=0.275x    frame=  354 fps=7.3 q=37.0 size=    3978kB time=00:00:13.45 bitrate=2421.0kbits/s speed=0.278x    frame=  371 fps=7.6 q=35.0 size=    3978kB time=00:00:14.16 bitrate=2299.9kbits/s speed=0.288x    frame=  376 fps=7.5 q=34.0 size=    3978kB time=00:00:14.37 bitrate=2266.6kbits/s speed=0.288x    frame=  377 fps=7.5 q=34.0 size=    3978kB time=00:00:14.41 bitrate=2260.0kbits/s speed=0.285x    frame=  379 fps=7.4 q=35.0 size=    3978kB time=00:00:14.50 bitrate=2247.0kbits/s speed=0.284x    frame=  382 fps=7.3 q=34.0 size=    3978kB time=00:00:14.62 bitrate=2227.8kbits/s speed=0.281x    frame=  383 fps=7.3 q=34.0 size=    3978kB time=00:00:14.66 bitrate=2221.5kbits/s speed=0.279x    frame=  385 fps=7.2 q=35.0 size=    3978kB time=00:00:14.75 bitrate=2209.0kbits/s speed=0.276x    frame=  387 fps=7.1 q=35.0 size=    3978kB time=00:00:14.83 bitrate=2196.6kbits/s speed=0.274x    frame=  388 fps=7.1 q=35.0 size=    3978kB time=00:00:14.87 bitrate=2190.4kbits/s speed=0.271x    frame=  390 fps=7.0 q=35.0 size=    3978kB time=00:00:14.95 bitrate=2178.2kbits/s speed=0.269x    frame=  392 fps=7.0 q=35.0 size=    3978kB time=00:00:15.04 bitrate=2166.1kbits/s speed=0.268x    frame=  393 fps=6.9 q=36.0 size=    3978kB time=00:00:15.08 bitrate=2160.2kbits/s speed=0.265x    frame=  394 fps=6.8 q=39.0 size=    3978kB time=00:00:15.12 bitrate=2154.2kbits/s speed=0.262x    frame=  399 fps=6.8 q=37.0 size=    3978kB time=00:00:15.33 bitrate=2125.0kbits/s speed=0.262x    frame=  401 fps=6.8 q=37.0 size=    3978kB time=00:00:15.41 bitrate=2113.4kbits/s speed=0.26x    frame=  404 fps=6.7 q=37.0 size=    3978kB time=00:00:15.54 bitrate=2096.4kbits/s speed=0.26x    frame=  406 fps=6.7 q=37.0 size=    3978kB time=00:00:15.62 bitrate=2085.3kbits/s speed=0.257x    frame=  407 fps=6.6 q=37.0 size=    3978kB time=00:00:15.66 bitrate=2079.7kbits/s speed=0.255x    frame=  410 fps=6.6 q=37.0 size=    3978kB time=00:00:15.79 bitrate=2063.2kbits/s speed=0.254x    frame=  412 fps=6.6 q=36.0 size=    3978kB time=00:00:15.87 bitrate=2052.4kbits/s speed=0.253x    frame=  413 fps=6.5 q=36.0 size=    3978kB time=00:00:15.91 bitrate=2047.0kbits/s speed=0.251x    frame=  414 fps=6.5 q=36.0 size=    3978kB time=00:00:15.95 bitrate=2041.8kbits/s speed=0.249x    frame=  417 fps=6.4 q=34.0 size=    5828kB time=00:00:16.08 bitrate=2968.5kbits/s speed=0.248x    frame=  419 fps=6.4 q=34.0 size=    5828kB time=00:00:16.16 bitrate=2953.1kbits/s speed=0.247x    frame=  421 fps=6.3 q=35.0 size=    5828kB time=00:00:16.25 bitrate=2938.0kbits/s speed=0.245x    frame=  422 fps=6.3 q=35.0 size=    5828kB time=00:00:16.29 bitrate=2930.4kbits/s speed=0.244x    frame=  423 fps=6.3 q=36.0 size=    5828kB time=00:00:16.33 bitrate=2923.1kbits/s speed=0.242x    frame=  424 fps=6.2 q=37.0 size=    5828kB time=00:00:16.37 bitrate=2915.6kbits/s speed=0.24x    frame=  426 fps=6.2 q=38.0 size=    5828kB time=00:00:16.45 bitrate=2900.9kbits/s speed=0.238x    frame=  429 fps=6.1 q=39.0 size=    5828kB time=00:00:16.58 bitrate=2879.0kbits/s speed=0.238x    frame=  431 fps=6.1 q=40.0 size=    5828kB time=00:00:16.66 bitrate=2864.5kbits/s speed=0.235x    frame=  434 fps=6.0 q=41.0 size=    5828kB time=00:00:16.79 bitrate=2843.2kbits/s speed=0.233x    frame=  436 fps=6.0 q=40.0 size=    5828kB time=00:00:16.87 bitrate=2829.2kbits/s speed=0.232x    frame=  441 fps=6.0 q=40.0 size=    5828kB time=00:00:17.08 bitrate=2794.7kbits/s speed=0.233x    frame=  443 fps=6.0 q=39.0 size=    5828kB time=00:00:17.16 bitrate=2781.1kbits/s speed=0.232x    frame=  448 fps=6.0 q=38.0 size=    5828kB time=00:00:17.37 bitrate=2747.8kbits/s speed=0.232x    frame=  449 fps=5.9 q=37.0 size=    6326kB time=00:00:17.41 bitrate=2975.3kbits/s speed=0.23x    frame=  451 fps=5.9 q=42.0 size=    6326kB time=00:00:17.50 bitrate=2961.2kbits/s speed=0.228x    frame=  453 fps=5.9 q=41.0 size=    6326kB time=00:00:17.58 bitrate=2947.2kbits/s speed=0.228x    frame=  456 fps=5.8 q=42.0 size=    6326kB time=00:00:17.70 bitrate=2926.4kbits/s speed=0.227x    frame=  458 fps=5.8 q=42.0 size=    6326kB time=00:00:17.79 bitrate=2912.6kbits/s speed=0.226x    frame=  460 fps=5.8 q=42.0 size=    6326kB time=00:00:17.87 bitrate=2899.1kbits/s speed=0.225x    frame=  461 fps=5.8 q=42.0 size=    6326kB time=00:00:17.91 bitrate=2892.3kbits/s speed=0.224x    frame=  463 fps=5.7 q=41.0 size=    6326kB time=00:00:18.00 bitrate=2879.0kbits/s speed=0.223x    frame=  466 fps=5.7 q=39.0 size=    6326kB time=00:00:18.12 bitrate=2859.1kbits/s speed=0.223x    frame=  469 fps=5.7 q=38.0 size=    6326kB time=00:00:18.25 bitrate=2839.5kbits/s speed=0.222x    frame=  477 fps=5.8 q=37.0 size=    6326kB time=00:00:18.58 bitrate=2788.6kbits/s speed=0.225x    frame=  498 fps=6.0 q=39.0 size=    6326kB time=00:00:19.45 bitrate=2663.2kbits/s speed=0.234x    frame=  500 fps=6.0 q=37.0 Lsize=    7590kB time=00:00:20.79 bitrate=2990.4kbits/s speed=0.25x    
video:7586kB audio:0kB subtitle:0kB other streams:0kB global headers:0kB muxing overhead: 0.059000%
bench: utime=1.152s
bench: maxrss=1188744kB
